<?xml version="1.0" encoding="utf-8"?>
<!-- Generator: Adobe Illustrator 26.0.2, SVG Export Plug-In . SVG Version: 6.00 Build 0)  -->
<svg version="1.1" id="Ebene_1" xmlns="http://www.w3.org/2000/svg" xmlns:xlink="http://www.w3.org/1999/xlink" x="0px" y="0px"
	 viewBox="-1 -1 33.3 33.3" style="enable-background:new 0 0 114 31.3;" xml:space="preserve">
<style type="text/css">
	.st1{fill:#000000;}
</style>
<g>
	<path class="st1" d="M15.9,0C7.1,0,0,7,0,15.6c0,8.6,7.1,15.6,15.9,15.6c8.8,0,15.9-7,15.9-15.6C31.8,7,24.7,0,15.9,0z M12.6,22.1
		C9,22.1,6,19.2,6,15.6c0-3.6,3-6.5,6.6-6.5c3.6,0,6.6,2.9,6.6,6.5C19.2,19.2,16.2,22.1,12.6,22.1z M24.4,17.9h-3.1v-4.6h3.1
		c1.3,0,2.4,1,2.4,2.3C26.8,16.9,25.7,17.9,24.4,17.9z"/>
</g>
</svg>
